<?xml version="1.0" encoding="UTF-8"?>
<svg version="1.1" xmlns="http://www.w3.org/2000/svg" width="1024" height="1024">
<path d="M0 0 C337.92 0 675.84 0 1024 0 C1024 337.92 1024 675.84 1024 1024 C686.08 1024 348.16 1024 0 1024 C0 686.08 0 348.16 0 0 Z " fill="#F4F4F4" transform="translate(0,0)"/>
<path d="M0 0 C14.81692887 5.47498922 28.07123378 16.9210962 36.44140625 30.2734375 C36.87453125 30.95712402 37.30765625 31.64081055 37.75390625 32.34521484 C38.61431738 33.72090951 39.4549312 35.10922195 40.2734375 36.51025391 C41.57431473 38.70326289 41.57431473 38.70326289 44 41.4375 C47.21010161 42.02382131 47.21010161 42.02382131 50 41.4375 C52.07942675 37.18870589 52.26410547 33.36902797 52.1953125 28.73046875 C52.1924826 28.00507401 52.18965271 27.27967926 52.18673706 26.53230286 C52.17559799 24.22969632 52.15050566 21.92748773 52.125 19.625 C52.11496206 18.05794835 52.10583763 16.49089057 52.09765625 14.92382812 C52.0756793 11.09490022 52.04119339 7.26626744 52 3.4375 C58.63024182 1.88583006 63.10189052 4.32665173 69 7.4375 C72.57450563 9.86269575 75.79542991 12.54611652 79 15.4375 C79.62519531 15.96988281 80.25039063 16.50226563 80.89453125 17.05078125 C91.39651037 26.60450041 98.37234095 41.34272161 99.10864258 55.53100586 C99.52538984 71.66752863 97.18311106 83.03286552 90 97.4375 C90.66354492 97.42879883 91.32708984 97.42009766 92.01074219 97.41113281 C113.29476058 97.25446811 138.00727764 98.67370959 156 111.4375 C156 112.4275 156 113.4175 156 114.4375 C155.44763672 114.66300537 154.89527344 114.88851074 154.32617188 115.12084961 C136.00297802 122.65241096 120.07430303 131.00622297 104.55541992 143.36523438 C103 144.4375 103 144.4375 100 145.4375 C100 146.0975 100 146.7575 100 147.4375 C101.49466797 147.57478516 101.49466797 147.57478516 103.01953125 147.71484375 C107.34589007 148.33972602 110.83740848 149.99525489 114.6875 152 C115.38520508 152.35860107 116.08291016 152.71720215 116.80175781 153.08666992 C138.33949086 164.36610799 154.83600678 179.99237555 163.3125 203 C165.60167551 214.44587755 162.96036957 224.37477803 156.71484375 234.1171875 C149.53253147 243.83539592 139.27308264 247.3271988 128 250.4375 C128.67804687 251.29730469 129.35609375 252.15710938 130.0546875 253.04296875 C132.53297899 256.18826829 135.0040447 259.33918094 137.47314453 262.49169922 C138.89313654 264.30131488 140.31925159 266.10594163 141.74609375 267.91015625 C153.2151067 282.49261704 153.2151067 282.49261704 155 287.4375 C153.91754394 291.02446225 151.31916709 293.47805606 148.8125 296.1875 C145.27778095 300.02958592 141.84908074 303.93027023 138.5078125 307.94140625 C137 309.4375 137 309.4375 134 310.4375 C133.72961914 309.89561035 133.45923828 309.3537207 133.18066406 308.79541016 C123.86648724 290.25684111 113.11503911 273.49569776 100 257.4375 C99.24074219 256.49648438 98.48148438 255.55546875 97.69921875 254.5859375 C94.62413904 250.79534191 91.5303666 247.02975409 88.3125 243.359375 C79.33899223 233.07755671 71.41465114 222.05045206 66 209.4375 C65.68160156 208.73367188 65.36320313 208.02984375 65.03515625 207.3046875 C61.13662799 196.99245147 60.89490431 181.51815934 65.31640625 171.36328125 C68.23722454 166.28742766 71.49030328 161.42592245 74.84667969 156.62841797 C75.36520508 155.8860791 75.88373047 155.14374023 76.41796875 154.37890625 C76.89000732 153.71576416 77.3620459 153.05262207 77.84838867 152.36938477 C82.24819354 144.98849524 80.92632151 132.43838435 79.421875 124.31640625 C76.21820097 115.21505956 69.32700569 108.30119216 60.875 103.9375 C46.11410394 97.30443911 28.3536099 95.76993289 13 101.4375 C-9.31393206 110.83556258 -27.07775798 126.15271086 -36.3125 148.8125 C-42.4268444 164.65468139 -44.25144127 180.22123997 -44.3125 197.125 C-44.31511841 197.82880798 -44.31773682 198.53261597 -44.32043457 199.25775146 C-44.32873667 220.5449292 -41.83166412 241.72711971 -38.84375 262.78125 C-34.51113555 293.42254647 -32.7054196 325.8483392 -47 354.4375 C-43.57563375 353.78699315 -40.23318872 352.99477329 -36.875 352.0625 C-35.92109375 351.79953125 -34.9671875 351.5365625 -33.984375 351.265625 C-32.99953125 350.99234375 -32.0146875 350.7190625 -31 350.4375 C-29.04211564 349.89421272 -27.08379568 349.35249232 -25.125 348.8125 C-24.26132812 348.57273437 -23.39765625 348.33296875 -22.5078125 348.0859375 C-15.73398351 346.33444901 -9.35049192 346.21881534 -2.375 346.1875 C-0.68697266 346.1565625 -0.68697266 346.1565625 1.03515625 346.125 C16.75004384 346.05233 29.29816732 351.18964298 40.71484375 362.02734375 C51.96986842 373.89802789 57.42458279 388.77681614 57.3125 405 C57.30404053 406.30372559 57.30404053 406.30372559 57.29541016 407.63378906 C56.63786278 443.19343014 35.47189765 475.411365 10.85913086 499.70776367 C7.69738916 502.64944981 4.31914997 505.27430727 0.875 507.875 C0.12492676 508.44210693 -0.62514648 509.00921387 -1.39794922 509.59350586 C-7.69836545 514.30235821 -14.11804919 518.61832122 -21 522.4375 C-21.80115234 522.88448242 -22.60230469 523.33146484 -23.42773438 523.79199219 C-66.62577228 547.65631247 -112.0910656 557.02881274 -161 558.4375 C-132.46778353 565.82064337 -132.46778353 565.82064337 -103.2421875 568.640625 C-102.0155262 568.65094254 -102.0155262 568.65094254 -100.76408386 568.66146851 C-98.13434351 568.67856992 -95.50479303 568.68492462 -92.875 568.6875 C-91.98038055 568.68917175 -91.08576111 568.69084351 -90.16403198 568.69256592 C-74.893867 568.69427861 -60.15786846 567.81320514 -45.24609375 564.3359375 C-42.09742858 563.61507977 -39.24843337 563.22792365 -36 563.4375 C-36.28875 564.10652344 -36.5775 564.77554688 -36.875 565.46484375 C-39.32573186 571.80441053 -40.40796933 577.5059331 -40.4375 584.25 C-40.44716797 584.95439209 -40.45683594 585.65878418 -40.46679688 586.38452148 C-40.37131104 592.34466325 -39.08574658 597.29216066 -34.8125 601.6875 C-26.80515553 606.66984767 -19.24674852 607.71743945 -9.96875 605.81640625 C28.65344019 595.06146468 62.05458167 560.94707346 88.26416016 532.33056641 C89.95372212 530.48796958 91.65269873 528.6546086 93.35546875 526.82421875 C98.07570981 521.74509524 102.75550254 516.63856154 107.29296875 511.39453125 C109.33633431 509.0519085 111.41680859 506.74476578 113.5 504.4375 C120.4009141 496.78270453 127.12342406 488.9815163 133.8203125 481.1484375 C135.88970698 478.7292862 137.96777307 476.31811267 140.0546875 473.9140625 C145.76743714 467.31816463 151.30476826 460.63208425 156.61157227 453.703125 C157.71996877 452.26475734 158.85701556 450.84853895 160 449.4375 C160.33 449.4375 160.66 449.4375 161 449.4375 C162.46157965 482.12373586 138.78046078 517.43466498 117.77197266 540.53662109 C107.18924337 551.8892155 96.37584507 563.07064722 83.75585938 572.16894531 C81.87771246 573.525849 80.02570401 574.91477874 78.171875 576.3046875 C63.99946592 586.77109797 48.60209451 595.12665152 32.90209961 603.05883789 C23.30210244 607.92801211 14.62220153 612.95185835 6.53662109 620.08740234 C4.97247031 621.46168799 3.37496692 622.78759891 1.76953125 624.11328125 C-9.93721506 634.0108358 -18.74977625 648.04596956 -21 663.4375 C-22.47176328 683.53004327 -18.7005879 703.78706501 -6.15234375 720.02734375 C4.45761835 731.9081906 21.38540927 733.23062464 36.27148438 735.50390625 C48.93180182 737.53872044 62.70828318 740.23622444 71 750.9375 C72.98421257 753.99905135 73.73162468 756.7697039 74 760.4375 C69.69722698 759.83166956 65.64174738 758.81139617 61.47583008 757.62182617 C52.22978695 755.00000939 43.61678773 753.59562357 34 753.4375 C34.49113281 754.52611328 34.49113281 754.52611328 34.9921875 755.63671875 C35.99606166 758.42655508 36.21259776 760.31547494 36.125 763.25 C36.10695313 764.04019531 36.08890625 764.83039062 36.0703125 765.64453125 C36.03550781 766.53205078 36.03550781 766.53205078 36 767.4375 C32.06869578 766.84356195 29.21527797 765.60825407 25.75 763.6875 C20.80616791 761.16092242 15.92737385 759.26831697 10.625 757.6875 C9.97885742 757.48930664 9.33271484 757.29111328 8.66699219 757.08691406 C-3.0181064 753.75401174 -14.9737781 753.07470653 -27.0625 753.125 C-27.72999268 753.12582581 -28.39748535 753.12665161 -29.08520508 753.12750244 C-42.10349272 753.16433202 -55.31589538 753.83981127 -67.87890625 757.53125 C-70.78303223 758.3745006 -73.00283059 758.61914663 -76 758.4375 C-75.69960303 752.42956052 -73.33355049 748.44486927 -69 744.4375 C-61.41543039 739.74321395 -53.12687578 736.54726649 -44.7421875 733.578125 C-42.06707406 732.46539975 -40.13576765 731.38626495 -38 729.4375 C-35.21791154 721.09123462 -37.84131701 713.106568 -40.25 705 C-40.5991748 703.80294434 -40.94834961 702.60588867 -41.30810547 701.37255859 C-44.29976131 691.3391435 -47.64881097 681.4373415 -51.125 671.5625 C-51.37221802 670.85787628 -51.61943604 670.15325256 -51.87414551 669.42727661 C-57.30458502 649.97602853 -57.30458502 649.97602853 -69 635.4375 C-87.3109234 635.12179442 -106.78402367 652.19942489 -120 663.4375 C-121.26070312 664.49710938 -121.26070312 664.49710938 -122.546875 665.578125 C-136.59184099 677.75042886 -148.67846021 695.1050733 -153 713.4375 C-153.25600063 718.70777394 -153.11577304 722.05594416 -150 726.4375 C-143.18431677 730.53666986 -136.07566663 732.01401157 -128.375 733.75 C-100.89326445 740.32283779 -100.89326445 740.32283779 -93 752.4375 C-91.15133492 755.57406842 -91 756.57032614 -91 760.4375 C-97.0707785 759.12216466 -103.09121067 757.67497837 -109.10546875 756.12109375 C-114.44373871 754.86036873 -119.38492962 754.31897887 -124.875 754.375 C-126.60363281 754.38853516 -126.60363281 754.38853516 -128.3671875 754.40234375 C-129.23601562 754.41394531 -130.10484375 754.42554688 -131 754.4375 C-130.505 755.283125 -130.01 756.12875 -129.5 757 C-127.85252292 760.77546832 -127.75569053 763.36567548 -128 767.4375 C-131.99662389 766.83655836 -134.95875195 765.54641893 -138.5 763.625 C-154.17822379 755.63292983 -171.4265139 752.89686713 -188.85449219 753.10131836 C-190.99973214 753.12499704 -193.14372356 753.12183166 -195.2890625 753.11523438 C-208.28463434 753.14116255 -220.98993933 754.30896333 -233.546875 757.8515625 C-236 758.4375 -236 758.4375 -240 758.4375 C-239.78342751 753.13147397 -238.70572285 749.98219323 -235.00390625 746.1171875 C-226.79010767 739.23232709 -215.80211831 736.55035419 -205.71728516 733.59204102 C-191.61232309 729.22556573 -183.07115521 719.50445575 -176.0625 706.8125 C-164.85726408 685.52641943 -148.29183818 648.54759516 -154.6171875 624.046875 C-158.58032044 614.8580181 -168.82256173 610.77241832 -177.25 606.5625 C-218.76510606 585.33791432 -247.62495838 550.61513526 -262.08251953 506.38525391 C-264.06366804 500.0200631 -265.80813689 493.58867688 -267.56738281 487.15942383 C-272.91060784 467.4133282 -272.91060784 467.4133282 -287.625 454 C-296.6976391 449.22971555 -307.69335064 448.96732248 -317.5859375 451.2734375 C-331.24970789 456.10930873 -342.9859074 466.63791175 -349.3125 479.6875 C-359.93199121 504.61380575 -358.820291 530.12960622 -350 555.4375 C-348.51970606 559.02456633 -346.82537375 562.48856491 -345.0390625 565.93359375 C-344 568.4375 -344 568.4375 -345 571.4375 C-349.97410712 571.02067538 -352.85492393 568.44775467 -356.4375 565.25 C-357.04513184 564.71536133 -357.65276367 564.18072266 -358.27880859 563.62988281 C-385.83122761 539.10574769 -407.55698452 508.24501741 -410.21875 470.32080078 C-411.51047342 443.15827934 -405.98593512 417.20380845 -387.625 396.1875 C-386.10028234 394.58783859 -384.55869782 393.00407003 -383 391.4375 C-382.27554688 390.67824219 -381.55109375 389.91898438 -380.8046875 389.13671875 C-366.17009994 374.77497943 -347.558532 369.13429055 -327.5 369 C-310.04526492 369.19441674 -295.22694218 373.34195911 -279 379.4375 C-278.21753906 379.73011719 -277.43507813 380.02273438 -276.62890625 380.32421875 C-274.7519301 381.02684778 -272.87586157 381.73190069 -271 382.4375 C-280.31104033 372.65233697 -289.52063854 363.62303067 -301 356.4375 C-301.61810547 356.04481934 -302.23621094 355.65213867 -302.87304688 355.24755859 C-323.1956345 342.52273025 -347.14982297 336.00127831 -371.0625 340.5625 C-384.40914601 343.83849493 -395.17129483 349.06113461 -406 357.4375 C-406.74894531 358.01371094 -407.49789062 358.58992188 -408.26953125 359.18359375 C-424.55783374 372.5804816 -433.65315788 391.8104791 -440 411.4375 C-440.24153809 412.17323242 -440.48307617 412.90896484 -440.73193359 413.66699219 C-447.10885451 434.18156105 -444.78693376 458.29456689 -443 479.4375 C-444.32 479.4375 -445.64 479.4375 -447 479.4375 C-448.75733884 477.39823515 -450.1362923 475.50904646 -451.5625 473.25 C-451.99087158 472.58508545 -452.41924316 471.9201709 -452.8605957 471.23510742 C-462.33242706 456.21477966 -470.16974524 440.55663051 -475 423.4375 C-475.25539551 422.54240723 -475.51079102 421.64731445 -475.77392578 420.72509766 C-479.49611978 407.03726046 -480.4688222 393.60715166 -480.5 379.5 C-480.50458221 378.73438751 -480.50916443 377.96877502 -480.5138855 377.17996216 C-480.54977833 362.07313627 -478.85737871 347.12631913 -473.8125 332.8125 C-473.36293945 331.50357788 -473.36293945 331.50357788 -472.90429688 330.16821289 C-469.96548184 321.87817923 -466.23704326 314.13141884 -462 306.4375 C-461.43539062 305.38304687 -460.87078125 304.32859375 -460.2890625 303.2421875 C-444.46285443 274.78473356 -418.92020452 252.38411935 -387.76953125 242.40234375 C-370.21310766 238.05869465 -349.41699532 238.64685652 -332 243.4375 C-330.17082031 243.93056641 -330.17082031 243.93056641 -328.3046875 244.43359375 C-306.99389484 250.86242368 -289.41886661 263.62327783 -274 279.4375 C-273.36964844 280.03433594 -272.73929688 280.63117188 -272.08984375 281.24609375 C-265.87020856 287.22440271 -260.60127458 293.72015888 -255.40722656 300.58154297 C-254.03005041 302.39786724 -252.63654361 304.20075704 -251.2421875 306.00390625 C-238.81787848 322.28304446 -228.93013526 340.57925151 -221 359.4375 C-226.75748728 312.41802054 -248.1546382 266.82237352 -285.75 236.875 C-315.63415274 213.60899968 -351.22966383 203.77024623 -388.84716797 207.73779297 C-394.03077187 208.53487995 -399.01444445 209.82362919 -404 211.4375 C-404.68304199 211.65712402 -405.36608398 211.87674805 -406.06982422 212.10302734 C-410.8057409 213.67204265 -415.41575347 215.47162786 -420 217.4375 C-421.17046875 217.93894531 -422.3409375 218.44039062 -423.546875 218.95703125 C-433.34672966 223.51329852 -441.60698807 229.69841211 -450 236.4375 C-450.87785156 237.1284375 -451.75570312 237.819375 -452.66015625 238.53125 C-459.83035693 244.50009431 -465.42870698 252.10669188 -470.6015625 259.828125 C-471.06304687 260.35921875 -471.52453125 260.8903125 -472 261.4375 C-472.99 261.4375 -473.98 261.4375 -475 261.4375 C-477.68059057 232.66582787 -460.97524512 201.35972226 -443.578125 179.50390625 C-439.25516829 174.29670839 -434.68699043 169.31838875 -430 164.4375 C-429.20190918 163.60327515 -429.20190918 163.60327515 -428.38769531 162.75219727 C-404.44186231 138.19384366 -367.8286686 119.76460802 -333.20703125 119.13671875 C-330.4085393 119.10782389 -327.61107695 119.11085413 -324.8125 119.125 C-323.71908295 119.12723572 -323.71908295 119.12723572 -322.60357666 119.1295166 C-311.77735455 119.16932653 -301.53262949 119.74364416 -291 122.4375 C-289.13021484 122.87255859 -289.13021484 122.87255859 -287.22265625 123.31640625 C-259.11385118 130.24933134 -234.17764277 143.94300138 -213.43261719 164.05175781 C-212.1473139 165.29500618 -210.84426923 166.51985104 -209.5390625 167.7421875 C-179.18906904 196.8142865 -158.84120209 245.15749655 -157.83886719 286.89624023 C-157.81928188 288.51280003 -157.80555244 290.1294386 -157.796875 291.74609375 C-157.78628555 293.05917763 -157.78628555 293.05917763 -157.77548218 294.39878845 C-157.65818509 313.24726334 -157.64137591 331.82776528 -161 350.4375 C-161.19867676 351.55624512 -161.39735352 352.67499023 -161.60205078 353.82763672 C-169.29859842 396.03469684 -169.29859842 396.03469684 -176 409.4375 C-139.13839664 393.615034 -104.23839378 372.67905724 -87.3125 334.6875 C-76.77778916 307.97828362 -75.03645477 279.00272726 -73.3203125 250.63671875 C-71.00754155 212.59611656 -66.7818843 176.40901246 -49.23046875 141.96484375 C-47.85408699 139.60629334 -47.85408699 139.60629334 -48 137.4375 C-48.70382812 137.30214844 -49.40765625 137.16679687 -50.1328125 137.02734375 C-65.75151068 133.62222287 -79.30400252 125.95185438 -88.625 112.73828125 C-95.332911 101.51396427 -99.20869276 90.59092125 -98 77.4375 C-97.34 76.4475 -96.68 75.4575 -96 74.4375 C-91.32644393 75.25029236 -87.13646047 76.81233533 -82.71875 78.5 C-75.52345279 80.98113697 -67.53302018 81.83852524 -60.375 79 C-58.13812826 77.64299211 -58.13812826 77.64299211 -57 76.4375 C-56.27286304 69.52969888 -57.72783423 65.8323512 -62 60.4375 C-64.18000833 57.95494299 -66.40781381 55.52105038 -68.640625 53.0859375 C-79.38771954 41.02214594 -79.38771954 41.02214594 -79.8125 35.5 C-78.77839304 31.60221221 -77.40992185 30.49931321 -74 28.4375 C-61.70181805 24.33810602 -48.64520436 28.7478952 -37.51953125 34.1171875 C-32.44271104 36.79546311 -27.553082 39.70901125 -22.6875 42.75 C-18.50520801 45.31687315 -14.81406782 46.54600596 -10 47.4375 C-9.08290179 36.31004169 -12.21251072 27.70614972 -16.66796875 17.6484375 C-16.9417334 17.02694824 -17.21549805 16.40545898 -17.49755859 15.76513672 C-18.26953926 14.03384635 -19.06572868 12.31340996 -19.86328125 10.59375 C-21.07798315 7.22096946 -21.5330377 4.98444247 -21 1.4375 C-15.75254298 -4.30797956 -6.62863483 -2.0024001 0 0 Z " fill="#066CCB" transform="translate(636,129.5625)"/>
<path d="M0 0 C7.33614285 7.33614285 9.27509284 15.64119644 9.5625 25.75 C9.30281039 55.07761341 -9.67747089 81.15319723 -25.875 104.125 C-26.7270204 105.34863963 -27.57861662 106.57257477 -28.4296875 107.796875 C-37.74195089 121.10416758 -47.90539133 133.78625845 -58.18188477 146.35571289 C-61.71318507 150.67811092 -65.18837713 155.03951646 -68.625 159.4375 C-75.51382035 168.24432137 -82.62606267 176.84905426 -89.8659668 185.3684082 C-93.18287694 189.28123976 -96.40521193 193.25900172 -99.59375 197.27734375 C-114.08913058 215.37174861 -129.02211794 233.22270283 -144.625 250.375 C-147.70508308 253.76534786 -150.62559757 257.2461118 -153.5 260.8125 C-156.56038355 264.59547411 -159.71795315 268.08741355 -163.2109375 271.46875 C-165.57017389 273.81691016 -167.71147816 276.33387827 -169.88671875 278.8515625 C-173.6183656 283.11839642 -177.47290182 287.2734041 -181.31982422 291.43603516 C-182.91967698 293.17352046 -184.50882867 294.92040099 -186.09765625 296.66796875 C-209.98056118 322.78295331 -246.78541178 361.70572703 -284.3203125 365.36328125 C-291.94659148 365.57450472 -298.87513856 364.62894366 -304.796875 359.44140625 C-311.11682764 352.44431583 -310.46138437 344.24902139 -310.08056641 335.25 C-309.62663895 330.5576193 -307.91173978 326.33486838 -305.875 322.125 C-311.92091692 322.95781505 -317.92834319 323.96641399 -323.93945312 325.01953125 C-335.20381782 326.94058569 -346.26826698 327.33982607 -357.67553711 327.36523438 C-360.27556314 327.37486321 -362.87477045 327.40593 -365.47460938 327.4375 C-381.19131755 327.537359 -396.15850261 325.23788268 -411.4375 321.625 C-412.31728516 321.42519531 -413.19707031 321.22539063 -414.10351562 321.01953125 C-420.10650639 319.63048254 -425.99403726 317.9609771 -431.875 316.125 C-431.875 315.795 -431.875 315.465 -431.875 315.125 C-431.12629639 315.10518066 -430.37759277 315.08536133 -429.60620117 315.06494141 C-372.68347954 313.48702386 -314.71624131 301.02683198 -268.875 265.125 C-268.28831543 264.66915527 -267.70163086 264.21331055 -267.09716797 263.74365234 C-244.69408041 246.13172015 -226.89064241 221.8339083 -217.9375 194.6875 C-215.18725468 186.51239324 -210.219716 181.05990431 -204.41552734 174.82958984 C-201.95671931 172.1089246 -199.73320745 169.2188476 -197.5 166.3125 C-193.38502349 161.00348234 -189.16111153 155.79675325 -184.875 150.625 C-180.63844097 145.51035319 -176.45412945 140.36613665 -172.375 135.125 C-167.7152126 129.13779542 -162.90567485 123.28406531 -158.06640625 117.44140625 C-154.43798688 113.05078062 -150.87343296 108.61973994 -147.375 104.125 C-141.54861632 96.64307336 -135.50525685 89.34465509 -129.45849609 82.04052734 C-127.31768 79.45081981 -125.18897469 76.85149871 -123.0625 74.25 C-122.36125 73.39277344 -121.66 72.53554688 -120.9375 71.65234375 C-119.53886225 69.93848271 -118.14311859 68.22225657 -116.75 66.50390625 C-107.30689815 54.88551844 -97.5970892 43.51663419 -87.30566406 32.63916016 C-85.95368288 31.20827495 -84.61318765 29.76656238 -83.2734375 28.32421875 C-63.77663498 7.97332669 -28.35221985 -18.49057816 0 0 Z " fill="#E39322" transform="translate(904.875,371.875)"/>
<path d="M0 0 C0.99 0.495 0.99 0.495 2 1 C1.26136719 1.95777344 0.52273438 2.91554688 -0.23828125 3.90234375 C-10.19705265 16.92700707 -19.29636618 30.33861291 -27.00854492 44.82421875 C-29.45742352 49.34992011 -31.5158359 53.04970865 -36.4609375 54.94140625 C-39.27507832 55.54120302 -42.08984433 56.12105053 -44.92236328 56.62792969 C-46.32158163 56.87850651 -47.71846207 57.14246371 -49.11279297 57.41894531 C-62.40859556 60.00173003 -75.68963953 60.31818305 -89.1875 60.375 C-90.44416977 60.38664688 -90.44416977 60.38664688 -91.72622681 60.39852905 C-108.07369606 60.51786824 -123.66376214 58.25942695 -139.5625 54.5 C-140.44228516 54.30019531 -141.32207031 54.10039063 -142.22851562 53.89453125 C-148.23150639 52.50548254 -154.11903726 50.8359771 -160 49 C-160 48.67 -160 48.34 -160 48 C-159.25129639 47.98018066 -158.50259277 47.96036133 -157.73120117 47.93994141 C-102.65801491 46.41329362 -44.32313997 35.12549375 0 0 Z " fill="#F0F1F1" transform="translate(633,639)"/>
<path d="M0 0 C0.95342285 -0.01780518 1.9068457 -0.03561035 2.88916016 -0.05395508 C4.2356665 -0.05238403 4.2356665 -0.05238403 5.609375 -0.05078125 C6.40827148 -0.05376221 7.20716797 -0.05674316 8.03027344 -0.05981445 C10.76703854 0.39922281 12.17395006 1.51892802 14.25 3.3125 C13.66756911 7.24390848 11.89880888 9.4066521 9.25 12.3125 C6.99904519 13.80559565 4.8830582 15.08256445 2.5 16.3125 C1.84531738 16.65498779 1.19063477 16.99747559 0.51611328 17.3503418 C-6.62063712 20.94923767 -14.02177961 23.31627152 -21.75 25.3125 C-22.689646 25.57506592 -23.62929199 25.83763184 -24.59741211 26.1081543 C-33.18362568 28.34200338 -41.2214953 28.67440525 -50.0625 28.5 C-51.40037525 28.48489836 -52.73826734 28.47121981 -54.07617188 28.45898438 C-57.30122748 28.42405597 -60.52538148 28.37501124 -63.75 28.3125 C-64.86767578 23.55712891 -64.86767578 23.55712891 -63.80859375 21.35546875 C-51.62825939 7.41412219 -31.99561963 1.73541184 -14.08691406 0.44140625 C-9.39212309 0.18243742 -4.70131276 0.0572581 0 0 Z " fill="#FAC05C" transform="translate(736.75,586.6875)"/>
<path d="M0 0 C1.5459082 -0.02670776 1.5459082 -0.02670776 3.12304688 -0.05395508 C9.3831813 -0.04737079 14.0380108 0.7229738 19.75 3.3125 C19.54356515 6.92510995 18.84253059 8.21522425 16.3125 10.875 C1.7679576 21.75797928 -22.68429235 24.40781665 -40.25 24.5625 C-41.06412354 24.57192627 -41.87824707 24.58135254 -42.71704102 24.59106445 C-47.00973735 24.56738246 -50.3380721 24.30001176 -54.25 22.3125 C-54.25 18.3125 -54.25 18.3125 -52.875 15.9375 C-44.97636368 8.03886368 -34.77925366 5.06153049 -24.25 2.3125 C-23.30898438 2.06371094 -22.36796875 1.81492187 -21.3984375 1.55859375 C-14.34573942 0.07107778 -7.18013052 0.08041487 0 0 Z " fill="#FABF5B" transform="translate(780.25,522.6875)"/>
<path d="M0 0 C1.56911133 -0.01836914 1.56911133 -0.01836914 3.16992188 -0.03710938 C9.79638245 -0.04960427 16.01654509 0.16452255 22.0625 3.1875 C22.0625 5.875 22.0625 5.875 21.0625 9.1875 C9.70335301 18.89010472 -8.64500879 20.29854674 -22.9375 22.1875 C-23.8346875 22.32027344 -24.731875 22.45304687 -25.65625 22.58984375 C-29.7570156 23.11687876 -33.84951616 23.22876121 -37.98046875 23.2421875 C-39.35247437 23.24665894 -39.35247437 23.24665894 -40.75219727 23.2512207 C-44.81415843 23.24945632 -48.87572929 23.22593015 -52.9375 23.1875 C-53.6640625 20.93359375 -53.6640625 20.93359375 -53.9375 18.1875 C-46.98719918 8.22284219 -33.28232433 4.10936191 -22.0078125 1.73046875 C-20.48800781 1.46169922 -20.48800781 1.46169922 -18.9375 1.1875 C-17.90238281 1.001875 -16.86726562 0.81625 -15.80078125 0.625 C-10.52581207 0.02763241 -5.30451456 0.0032563 0 0 Z " fill="#FABF5C" transform="translate(827.9375,461.8125)"/>
<path d="M0 0 C0 3.53662063 -0.47774639 3.90088554 -2.7890625 6.40625 C-3.39331055 7.06222168 -3.99755859 7.71819336 -4.62011719 8.39404297 C-5.28172852 9.08900879 -5.94333984 9.78397461 -6.625 10.5 C-7.30723633 11.21687988 -7.98947266 11.93375977 -8.69238281 12.67236328 C-29.86539309 34.51590116 -57.40765848 47.39091069 -88 48.375 C-99.77006183 48.01029386 -112.41559678 46.36022477 -123 41 C-123 40.67 -123 40.34 -123 40 C-121.72769531 39.96261719 -120.45539063 39.92523437 -119.14453125 39.88671875 C-76.80731759 38.41461508 -33.71853249 26.68390231 0 0 Z " fill="#EEF1F2" transform="translate(548,610)"/>
<path d="M0 0 C1.02222656 -0.01417969 2.04445313 -0.02835938 3.09765625 -0.04296875 C5.91793159 0.18591192 7.5430336 0.73474221 9.9375 2.1875 C10.31830911 6.6505828 10.31830911 6.6505828 8.6796875 8.9609375 C-1.99050205 18.11319213 -14.73110387 22.51383218 -28.0625 26.1875 C-28.94035156 26.435 -29.81820312 26.6825 -30.72265625 26.9375 C-36.04819487 28.29001774 -41.58804951 28.89121008 -47.0625 28.1875 C-47.7225 27.5275 -48.3825 26.8675 -49.0625 26.1875 C-48.54037097 20.27970677 -45.41959947 16.94290478 -41.0625 13.1875 C-31.6420106 6.9933596 -22.05095491 3.53082111 -11.0625 1.1875 C-10.22074219 0.99414062 -9.37898437 0.80078125 -8.51171875 0.6015625 C-5.64581126 0.11705501 -2.9060763 0.01836964 0 0 Z " fill="#FABF5B" transform="translate(683.0625,649.8125)"/>
<path d="M0 0 C2.22265625 1.60546875 2.22265625 1.60546875 4.22265625 4.60546875 C3.84765625 7.29296875 3.84765625 7.29296875 3.22265625 9.60546875 C-8.52417221 12.27049811 -34.05819519 17.28513521 -44.77734375 10.60546875 C-45.15234375 7.91796875 -45.15234375 7.91796875 -44.77734375 4.60546875 C-34.19759577 -7.73757056 -13.1072872 -7.30185876 0 0 Z " fill="#FABF5B" transform="translate(870.77734375,412.39453125)"/>
<path d="M0 0 C3.81271757 2.14767003 6.34049381 4.95260707 8 9 C8.72798272 13.65570345 8.42814156 17.14371687 6.3125 21.375 C3.30095388 24.79351181 1.28773267 26.68960411 -3.33203125 27.31640625 C-7.67021667 27.51803106 -10.46690399 27.25200902 -14.4375 25.375 C-18.36664148 21.73335668 -20.12217703 18.32997533 -20.4375 13 C-20.2674846 8.76580697 -18.72839737 6.25891908 -16 3 C-10.98489071 -1.40721725 -6.28010181 -1.5753839 0 0 Z " fill="#076ACB" transform="translate(685,252)"/>
<path d="M0 0 C1.52181961 2.80172114 2.41538726 5.32586128 3.03515625 8.44921875 C3.20466797 9.29806641 3.37417969 10.14691406 3.54882812 11.02148438 C3.71833984 11.90126953 3.88785156 12.78105469 4.0625 13.6875 C4.23587891 14.54794922 4.40925781 15.40839844 4.58789062 16.29492188 C5.68073174 21.85124432 6.44615188 27.36445268 7 33 C3.85093935 31.42546968 3.4839296 28.70173642 2.1875 25.5 C0.08397818 20.36445125 -2.23244498 15.55511706 -5.21484375 10.8671875 C-6.20033626 8.52357845 -5.8408158 7.35010629 -5 5 C-4.01 5.99 -3.02 6.98 -2 8 C-1.34 5.36 -0.68 2.72 0 0 Z " fill="#EAF0F3" transform="translate(409,457)"/>
<path d="M0 0 C0.33 0 0.66 0 1 0 C1.19513691 5.27910909 1.37333872 10.55844765 1.53710938 15.83862305 C1.59484139 17.62783441 1.65688167 19.41691296 1.72363281 21.20581055 C2.1374412 32.38804169 1.94227251 42.95556094 0 54 C-0.66 54 -1.32 54 -2 54 C-2 55.65 -2 57.3 -2 59 C-2.66 59 -3.32 59 -4 59 C-3.86722656 57.74445313 -3.73445313 56.48890625 -3.59765625 55.1953125 C-3.41925653 53.50520984 -3.24087192 51.81510559 -3.0625 50.125 C-2.97548828 49.30257812 -2.88847656 48.48015625 -2.79882812 47.6328125 C-2.61999441 45.93720391 -2.44305374 44.2413948 -2.26782227 42.54541016 C-2.09725916 40.92436102 -1.9189021 39.30409932 -1.73022461 37.68505859 C-0.86466403 29.93461421 -0.66441973 22.16436703 -0.4375 14.375 C-0.39419373 12.97525068 -0.35057613 11.57551096 -0.30664062 10.17578125 C-0.20137645 6.78393549 -0.09923991 3.39202646 0 0 Z " fill="#D9E7F1" transform="translate(478,425)"/>
<path d="M0 0 C3.9239723 3.25606212 7.59160426 6.57291719 11.125 10.25 C16.58957224 15.80927886 22.75014084 20.37297908 29 25 C29 24.01 29 23.02 29 22 C28.01 22 27.02 22 26 22 C25.67 19.36 25.34 16.72 25 14 C27.97526665 16.55022856 29.50122302 19.40293526 31 23 C30.67 23.99 30.34 24.98 30 26 C24.94054129 25.60206505 22.00633015 22.87239212 18.375 19.625 C17.46500244 18.82666748 17.46500244 18.82666748 16.53662109 18.01220703 C10.81460678 12.94045567 5.04904892 7.74973325 0 2 C0 1.34 0 0.68 0 0 Z " fill="#0A54C2" transform="translate(261,675)"/>
<path d="M0 0 C3 0 3 0 5 1 C5 3.97 5 6.94 5 10 C0.49272353 9.39733215 -2.8587963 7.63400206 -6.8125 5.4375 C-7.40998047 5.10814453 -8.00746094 4.77878906 -8.62304688 4.43945312 C-10.08533998 3.63226733 -11.5431399 2.81695083 -13 2 C-10 1 -10 1 -7.95703125 1.77734375 C-7.24933594 2.16019531 -6.54164063 2.54304687 -5.8125 2.9375 C-5.09707031 3.31777344 -4.38164063 3.69804688 -3.64453125 4.08984375 C-3.10183594 4.39019531 -2.55914063 4.69054687 -2 5 C-1.855625 4.360625 -1.71125 3.72125 -1.5625 3.0625 C-1 1 -1 1 0 0 Z " fill="#0760C7" transform="translate(667,887)"/>
<path d="M0 0 C1.22404304 3.67212912 0.33453801 4.89766806 -1.30273438 8.25390625 C-1.63595703 8.91261719 -1.96917969 9.57132813 -2.3125 10.25 C-4.23738133 14.09976267 -6.00955056 17.72823184 -7.04296875 21.921875 C-7.35878906 22.93765625 -7.67460937 23.9534375 -8 25 C-8.99 25.33 -9.98 25.66 -11 26 C-12.37195574 27.29355827 -13.71182656 28.62298702 -15 30 C-13.48661173 25.85564442 -11.42774536 22.15724602 -9.1875 18.375 C-5.71212862 12.41654224 -2.69768588 6.35512539 0 0 Z " fill="#0858C4" transform="translate(468,819)"/>
<path d="M0 0 C2.52259061 1.97420135 2.9929808 2.96745642 3.6875 6.1875 C3.790625 7.115625 3.89375 8.04375 4 9 C2.5608866 8.71640113 1.12374482 8.42278601 -0.3125 8.125 C-1.11300781 7.96257813 -1.91351562 7.80015625 -2.73828125 7.6328125 C-5 7 -5 7 -8 5 C-2.25 2 -2.25 2 0 2 C0 1.34 0 0.68 0 0 Z " fill="#0E64C8" transform="translate(541,881)"/>
<path d="M0 0 C3.3 0.66 6.6 1.32 10 2 C10 2.99 10 3.98 10 5 C6.37372376 4.72297423 2.74936645 4.42590775 -0.875 4.125 C-2.42380859 4.00705078 -2.42380859 4.00705078 -4.00390625 3.88671875 C-4.99003906 3.80292969 -5.97617187 3.71914063 -6.9921875 3.6328125 C-7.90339355 3.55949707 -8.81459961 3.48618164 -9.75341797 3.41064453 C-12 3 -12 3 -14 1 C-12.41676312 0.972807 -10.83338938 0.95351694 -9.25 0.9375 C-7.92742188 0.92009766 -7.92742188 0.92009766 -6.578125 0.90234375 C-4.2181162 0.99173802 -2.25501476 1.33087179 0 2 C0 1.34 0 0.68 0 0 Z " fill="#1263C8" transform="translate(682,880)"/>
<path d="M0 0 C0.33 0 0.66 0 1 0 C1.33 4.62 1.66 9.24 2 14 C0.68 14 -0.64 14 -2 14 C-4.17457267 11.12645755 -5 9.63563409 -5 6 C-3.68 6 -2.36 6 -1 6 C-0.67 4.02 -0.34 2.04 0 0 Z " fill="#0D6BCA" transform="translate(191,595)"/>
<path d="M0 0 C0.14159263 5.00723034 -0.32097666 9.48057479 -1.375 14.375 C-1.63023437 15.59960938 -1.88546875 16.82421875 -2.1484375 18.0859375 C-2.42945313 19.04757812 -2.71046875 20.00921875 -3 21 C-3.66 21.33 -4.32 21.66 -5 22 C-4.814375 20.865625 -4.62875 19.73125 -4.4375 18.5625 C-3.9964746 15.28962728 -4.14206743 12.56327813 -4.6875 9.3125 C-5.19110886 5.71884664 -5.14291255 5.23342383 -3.125 1.9375 C-1 0 -1 0 0 0 Z " fill="#0F5CC5" transform="translate(797,579)"/>
<path d="M0 0 C0.93423645 3.01031744 1.04449911 3.86650268 0 7 C-0.66 7 -1.32 7 -2 7 C-2.18175781 7.76183594 -2.36351562 8.52367187 -2.55078125 9.30859375 C-4.09673563 15.65889864 -5.84093336 21.83123818 -8 28 C-8.33 28 -8.66 28 -9 28 C-8.77533572 21.70940022 -7.26992414 16.46407782 -5.0625 10.625 C-4.66490479 9.5721582 -4.66490479 9.5721582 -4.25927734 8.49804688 C-3.05910827 5.41381349 -1.84276475 2.76414712 0 0 Z " fill="#0F5BC6" transform="translate(169,447)"/>
<path d="M0 0 C0.66 0 1.32 0 2 0 C2 0.66 2 1.32 2 2 C1.01 2.66 0.02 3.32 -1 4 C-1.45375 4.763125 -1.9075 5.52625 -2.375 6.3125 C-4.22143363 9.36621716 -6.48283409 11.48283409 -9 14 C-9.515625 14.9075 -10.03125 15.815 -10.5625 16.75 C-12 19 -12 19 -14.1875 19.8125 C-14.785625 19.874375 -15.38375 19.93625 -16 20 C-13.07609486 15.42315087 -9.85345755 11.30063878 -6.3125 7.1875 C-5.81427734 6.60291016 -5.31605469 6.01832031 -4.80273438 5.41601562 C-1.21552579 1.21552579 -1.21552579 1.21552579 0 0 Z " fill="#E38919" transform="translate(788,439)"/>
<path d="M0 0 C0 2.97959293 -0.099932 5.16132401 -1 8 C-5.21621622 12 -5.21621622 12 -8 12 C-8.33 12.66 -8.66 13.32 -9 14 C-9.33 13.01 -9.66 12.02 -10 11 C-6.7 7.37 -3.4 3.74 0 0 Z " fill="#0A66D7" transform="translate(792,585)"/>
<path d="M0 0 C0.99 0 1.98 0 3 0 C3.05407567 2.58361518 3.093707 5.16609255 3.125 7.75 C3.14175781 8.47960937 3.15851562 9.20921875 3.17578125 9.9609375 C3.21072239 13.8044624 3.17499684 16.74606772 1 20 C0.202163 13.30386804 -0.12910853 6.74233419 0 0 Z " fill="#E98D1C" transform="translate(911,390)"/>
<path d="M0 0 C2.9609375 2.6328125 2.9609375 2.6328125 3.3125 5.9375 C3.01578279 8.84532863 2.51394052 10.53984665 1 13 C0.34 13 -0.32 13 -1 13 C-1.33 14.32 -1.66 15.64 -2 17 C-3.30211046 13.09366863 -2.47812346 10.80461827 -1.5625 6.8125 C-1.27503906 5.54019531 -0.98757813 4.26789062 -0.69140625 2.95703125 C-0.46324219 1.98121094 -0.23507812 1.00539063 0 0 Z " fill="#E3ECF2" transform="translate(796,586)"/>
<path d="M0 0 C5.1530074 -0.19844701 9.37140851 0.42080122 14.3125 1.875 C15.52550781 2.22304687 16.73851562 2.57109375 17.98828125 2.9296875 C21 4 21 4 23 6 C16.8125 4.96875 16.8125 4.96875 10.625 3.9375 C9.56539062 3.76089844 8.50578125 3.58429688 7.4140625 3.40234375 C6.61742187 3.26957031 5.82078125 3.13679687 5 3 C5 2.34 5 1.68 5 1 C3.35 1 1.7 1 0 1 C0 0.67 0 0.34 0 0 Z " fill="#0956C4" transform="translate(757,230)"/>
<path d="M0 0 C3.99138612 3.65877061 6.74451114 7.03792451 9 12 C8.21073412 15.55169647 5.94619827 17.03586782 3 19 C3.33 18.38125 3.66 17.7625 4 17.125 C5.85828913 13.17613559 4.31498472 10.01416388 3 6 C2.04175747 4.63634717 1.05278825 3.29205831 0 2 C0 1.34 0 0.68 0 0 Z " fill="#0B56C4" transform="translate(782,405)"/>
<path d="M0 0 C0.33 0 0.66 0 1 0 C1.66 5.28 2.32 10.56 3 16 C0.32289809 14.66144904 0.04870906 13.27941912 -1.125 10.5625 C-1.65480469 9.35787109 -1.65480469 9.35787109 -2.1953125 8.12890625 C-3 6 -3 6 -3 4 C-2.01 4 -1.02 4 0 4 C0 2.68 0 1.36 0 0 Z " fill="#DEE9F3" transform="translate(413,474)"/>
<path d="M0 0 C1 3 1 3 -0.65234375 6.57421875 C-1.40387723 7.95092168 -2.1660567 9.32185409 -2.9375 10.6875 C-3.51661133 11.7403418 -3.51661133 11.7403418 -4.10742188 12.81445312 C-5.06261773 14.54795672 -6.03015386 16.27465009 -7 18 C-8.25541557 14.23375329 -7.37061958 12.62811066 -6 9 C-5.34 9 -4.68 9 -4 9 C-4 8.01 -4 7.02 -4 6 C-3.34 6 -2.68 6 -2 6 C-1.855625 5.38125 -1.71125 4.7625 -1.5625 4.125 C-1 2 -1 2 0 0 Z " fill="#EA8918" transform="translate(905,429)"/>
<path d="M0 0 C5.66104589 0.49658297 9.87674471 1.54510684 15 4 C15 4.33 15 4.66 15 5 C13.24929483 4.88529863 11.49942464 4.75780972 9.75 4.625 C8.77546875 4.55539062 7.8009375 4.48578125 6.796875 4.4140625 C4.10366811 4.01534751 2.33036721 3.36492937 0 2 C0 1.34 0 0.68 0 0 Z " fill="#E1EBF3" transform="translate(650,859)"/>
<path d="M0 0 C0.99 0.66 1.98 1.32 3 2 C3.33 1.67 3.66 1.34 4 1 C4.66 0.67 5.32 0.34 6 0 C4.90931332 3.77545388 4.0916909 6.47043472 1 9 C0.34 8.67 -0.32 8.34 -1 8 C-1.625 4.9375 -1.625 4.9375 -2 2 C-1.34 2 -0.68 2 0 2 C0 1.34 0 0.68 0 0 Z " fill="#0764D4" transform="translate(674,583)"/>
<path d="M0 0 C0.66 0.66 1.32 1.32 2 2 C-3.45275886 2.97758625 -8.42516763 2.97344509 -13.9375 2.5625 C-15.10635742 2.48418945 -15.10635742 2.48418945 -16.29882812 2.40429688 C-18.19966772 2.27601936 -20.09990904 2.13892679 -22 2 C-22 1.67 -22 1.34 -22 1 C-5.35657686 -0.30903328 -5.35657686 -0.30903328 0 0 Z " fill="#BFD7EA" transform="translate(652,474)"/>
<path d="M0 0 C-2.75101957 2.75101957 -5.02938969 2.68248934 -8.80078125 3.046875 C-11 3 -11 3 -13.5625 1.5625 C-14.036875 1.046875 -14.51125 0.53125 -15 0 C-9.77254141 -1.2063366 -5.23471686 -0.75612577 0 0 Z " fill="#E4ECF2" transform="translate(259,337)"/>
<path d="M0 0 C0.47308594 0.38671875 0.94617188 0.7734375 1.43359375 1.171875 C6.33904287 5.03503571 11.19610545 7.71606001 17 10 C15.3125 10.67578125 15.3125 10.67578125 13 11 C10.5625 9.85546875 10.5625 9.85546875 8 8.1875 C5.05062363 6.29468376 2.1683569 4.5035027 -1 3 C-0.67 2.01 -0.34 1.02 0 0 Z " fill="#0854C3" transform="translate(629,850)"/>
<path d="M0 0 C2.0625 0.4375 2.0625 0.4375 4 1 C-0.18461538 6.78461538 -0.18461538 6.78461538 -4.3125 7.875 C-5.6428125 7.936875 -5.6428125 7.936875 -7 8 C-6.02133662 6.85373678 -5.04205413 5.70800212 -4.0625 4.5625 C-3.51722656 3.92441406 -2.97195313 3.28632812 -2.41015625 2.62890625 C-1.63204305 1.73008851 -0.84063472 0.84063472 0 0 Z " fill="#0365D9" transform="translate(717,670)"/>
<path d="M0 0 C0 4.53846154 0 4.53846154 -1 7 C-3.3125 8.5625 -3.3125 8.5625 -6 10 C-7.34631825 10.98244845 -8.68441297 11.97676564 -10 13 C-8.48446596 9.52224821 -6.4226544 7.0442016 -3.875 4.25 C-3.15054688 3.45078125 -2.42609375 2.6515625 -1.6796875 1.828125 C-0.84824219 0.92320312 -0.84824219 0.92320312 0 0 Z " fill="#0662E0" transform="translate(768,613)"/>
<path d="M0 0 C1.00692101 3.02076303 1.39261106 4.8591115 1 8 C-1 9.8125 -1 9.8125 -3 11 C-2.67 9.35 -2.34 7.7 -2 6 C-2.66 6 -3.32 6 -4 6 C-3.67 4.35 -3.34 2.7 -3 1 C-2.01 0.67 -1.02 0.34 0 0 Z " fill="#EB981E" transform="translate(772,600)"/>
<path d="M0 0 C3.96 0 7.92 0 12 0 C11.67 0.99 11.34 1.98 11 3 C7.37 3 3.74 3 0 3 C0 2.01 0 1.02 0 0 Z " fill="#CD9132" transform="translate(612,734)"/>
<path d="M0 0 C-0.66 0.66 -1.32 1.32 -2 2 C-4.75589777 1.98252073 -7.38786676 1.86136729 -10.125 1.625 C-10.87910156 1.56828125 -11.63320313 1.5115625 -12.41015625 1.453125 C-14.27418096 1.3115535 -16.13721137 1.15700041 -18 1 C-18 0.67 -18 0.34 -18 0 C-15.75067773 -0.1954625 -13.50049858 -0.38108226 -11.25 -0.5625 C-9.99703125 -0.66691406 -8.7440625 -0.77132812 -7.453125 -0.87890625 C-4.60547636 -0.97876723 -2.65713933 -0.90584295 0 0 Z " fill="#D5E5F1" transform="translate(534,697)"/>
<path d="M0 0 C0.66 0.66 1.32 1.32 2 2 C-1.625 8.75 -1.625 8.75 -5 11 C-4.50769231 4.6 -4.50769231 4.6 -1.9375 1.5625 C-0.9784375 0.7890625 -0.9784375 0.7890625 0 0 Z " fill="#EEF2EA" transform="translate(695,548)"/>
<path d="M0 0 C2.63033454 2.63033454 2.77962372 4.32706204 3 8 C1.5625 10.375 1.5625 10.375 0 12 C-1 11 -1 11 -1.125 7.6875 C-1.02893262 4.85351237 -0.85249568 2.66404901 0 0 Z " fill="#D8E4F0" transform="translate(483,839)"/>
<path d="M0 0 C0.33 0 0.66 0 1 0 C0.85831863 1.43791516 0.71148957 2.8753237 0.5625 4.3125 C0.48128906 5.11300781 0.40007813 5.91351563 0.31640625 6.73828125 C0 9 0 9 -1 12 C-1.99 11.67 -2.98 11.34 -4 11 C-3.71758359 9.53984709 -3.42373386 8.08190207 -3.125 6.625 C-2.96257813 5.81289063 -2.80015625 5.00078125 -2.6328125 4.1640625 C-2 2 -2 2 0 0 Z " fill="#E7EEF3" transform="translate(801,344)"/>
<path d="M0 0 C0.66 0.33 1.32 0.66 2 1 C0.35 1.66 -1.3 2.32 -3 3 C-2.67 4.65 -2.34 6.3 -2 8 C-2.99 8 -3.98 8 -5 8 C-5 7.34 -5 6.68 -5 6 C-5.66 6 -6.32 6 -7 6 C-6 3 -6 3 -3.0625 1.25 C-2.051875 0.8375 -1.04125 0.425 0 0 Z " fill="#0467DA" transform="translate(647,727)"/>
<path d="M0 0 C0.99 0.33 1.98 0.66 3 1 C3.33 1.99 3.66 2.98 4 4 C2.02 4.99 0.04 5.98 -2 7 C-2.66 6.01 -3.32 5.02 -4 4 C-2.68 2.68 -1.36 1.36 0 0 Z " fill="#0367D6" transform="translate(705,682)"/>
<path d="M0 0 C3.63 1.65 7.26 3.3 11 5 C11 5.99 11 6.98 11 8 C8.0625 7.1875 8.0625 7.1875 5 6 C4.67 5.01 4.34 4.02 4 3 C2.68 3 1.36 3 0 3 C0 2.01 0 1.02 0 0 Z " fill="#E7EFF4" transform="translate(457,735)"/>
<path d="M0 0 C0 3.58912412 -0.66436554 4.10857029 -3 6.6875 C-3.556875 7.31011719 -4.11375 7.93273437 -4.6875 8.57421875 C-5.120625 9.04472656 -5.55375 9.51523437 -6 10 C-7.04449911 6.86650268 -6.93423645 6.01031744 -6 3 C-5.38125 2.87625 -4.7625 2.7525 -4.125 2.625 C-1.80879168 2.12802644 -1.80879168 2.12802644 0 0 Z " fill="#EF9616" transform="translate(799,574)"/>
<path d="M0 0 C2 3 2 3 1.7578125 5.48046875 C1.54898438 6.37378906 1.34015625 7.26710938 1.125 8.1875 C0.92132813 9.08855469 0.71765625 9.98960937 0.5078125 10.91796875 C0.25644531 11.94857422 0.25644531 11.94857422 0 13 C-1.44977894 10.65887549 -2.04314411 9.4203071 -1.7578125 6.640625 C-1.54898438 5.85171875 -1.34015625 5.0628125 -1.125 4.25 C-0.92132813 3.45078125 -0.71765625 2.6515625 -0.5078125 1.828125 C-0.34023437 1.22484375 -0.17265625 0.6215625 0 0 Z " fill="#E6EDF3" transform="translate(196,538)"/>
<path d="M0 0 C2 2 4 4 6 6 C7.32 5.34 8.64 4.68 10 4 C8.60840337 7.47899158 7.36748512 8.48052501 4 10 C3.32845067 8.71086513 2.66291141 7.41859796 2 6.125 C1.62875 5.40570313 1.2575 4.68640625 0.875 3.9453125 C0 2 0 2 0 0 Z " fill="#034DC0" transform="translate(766,430)"/>
<path d="M0 0 C0.66 0.33 1.32 0.66 2 1 C2 4.96 2 8.92 2 13 C-1 10 -1 10 -1.328125 7.7734375 C-1.30234375 6.98195313 -1.2765625 6.19046875 -1.25 5.375 C-1.23453125 4.57835937 -1.2190625 3.78171875 -1.203125 2.9609375 C-1 1 -1 1 0 0 Z " fill="#E5ECF1" transform="translate(592,335)"/>
<path d="M0 0 C0.66 0.33 1.32 0.66 2 1 C1.360625 1.268125 0.72125 1.53625 0.0625 1.8125 C-2.33131686 2.88667752 -2.33131686 2.88667752 -3 6 C-8.22222222 9 -8.22222222 9 -11 9 C-11 8.34 -11 7.68 -11 7 C-8.6640625 5.23828125 -8.6640625 5.23828125 -5.625 3.3125 C-4.62726562 2.66925781 -3.62953125 2.02601563 -2.6015625 1.36328125 C-1.74304688 0.91339844 -0.88453125 0.46351563 0 0 Z " fill="#0956C4" transform="translate(523,636)"/>
<path d="M0 0 C0.66 0.99 1.32 1.98 2 3 C1.3203125 5.26171875 1.3203125 5.26171875 0.125 7.6875 C-0.45894531 8.89986328 -0.45894531 8.89986328 -1.0546875 10.13671875 C-1.52261719 11.05904297 -1.52261719 11.05904297 -2 12 C-2.33 12 -2.66 12 -3 12 C-3 9.69 -3 7.38 -3 5 C-2.01 4.67 -1.02 4.34 0 4 C0 2.68 0 1.36 0 0 Z " fill="#E6EFF3" transform="translate(464,822)"/>
<path d="M0 0 C5.28 0 10.56 0 16 0 C16 0.33 16 0.66 16 1 C13.36 1 10.72 1 8 1 C8 1.66 8 2.32 8 3 C5.36 2.34 2.72 1.68 0 1 C0 0.67 0 0.34 0 0 Z " fill="#BCD7ED" transform="translate(473,687)"/>
<path d="M0 0 C0.33 1.32 0.66 2.64 1 4 C-0.32 4.99 -1.64 5.98 -3 7 C-3.66 6.34 -4.32 5.68 -5 5 C-4.34 5 -3.68 5 -3 5 C-3.33 4.34 -3.66 3.68 -4 3 C-4.33 2.34 -4.66 1.68 -5 1 C-3 0 -3 0 0 0 Z " fill="#ED9A17" transform="translate(789,584)"/>
<path d="M0 0 C2 2 2 2 2 6 C1.34 6 0.68 6 0 6 C0 6.66 0 7.32 0 8 C0.66 8.33 1.32 8.66 2 9 C1.01 9.99 0.02 10.98 -1 12 C-2.36884358 7.48281619 -1.47075246 4.41225737 0 0 Z " fill="#E5ECF1" transform="translate(466,516)"/>
<path d="M0 0 C0.33 0 0.66 0 1 0 C1.22151549 1.79008467 1.42682213 3.58218162 1.625 5.375 C1.74101563 6.37273437 1.85703125 7.37046875 1.9765625 8.3984375 C1.98429688 9.25695312 1.99203125 10.11546875 2 11 C1.34 11.66 0.68 12.32 0 13 C-0.66 13.99 -1.32 14.98 -2 16 C-2.20674944 10.21101581 -1.59162079 5.57067277 0 0 Z " fill="#EB992A" transform="translate(911,401)"/>
<path d="M0 0 C0 2.31 0 4.62 0 7 C-2.97 6.505 -2.97 6.505 -6 6 C-6 5.34 -6 4.68 -6 4 C-1.41176471 0 -1.41176471 0 0 0 Z " fill="#E6EEF3" transform="translate(742,271)"/>
<path d="M0 0 C3.63 0.33 7.26 0.66 11 1 C7.3558226 3.4294516 5.28758728 3.16179575 1 3 C0.67 2.01 0.34 1.02 0 0 Z " fill="#E2ECF3" transform="translate(627,883)"/>
<path d="M0 0 C0.99 0 1.98 0 3 0 C2.69381595 3.67420866 2.24228216 4.78135513 -0.5625 7.3125 C-1.366875 7.869375 -2.17125 8.42625 -3 9 C-2.690625 8.443125 -2.38125 7.88625 -2.0625 7.3125 C-0.94238179 4.87459567 -0.43962636 2.63775814 0 0 Z " fill="#EE9A15" transform="translate(734,645)"/>
<path d="M0 0 C0.33 0.99 0.66 1.98 1 3 C-1.97 5.475 -1.97 5.475 -5 8 C-6.125 4.25 -6.125 4.25 -5 2 C-3.02 2.495 -3.02 2.495 -1 3 C-0.67 2.01 -0.34 1.02 0 0 Z " fill="#1B69C8" transform="translate(655,617)"/>
<path d="M0 0 C0.66 0.33 1.32 0.66 2 1 C1.39009109 4.55780196 0.4216319 7.6828589 -1 11 C-2.60080151 6.99799622 -1.29279692 3.95443764 0 0 Z " fill="#D7E4F0" transform="translate(193,553)"/>
<path d="M0 0 C0.99 0.66 1.98 1.32 3 2 C2.67 2.99 2.34 3.98 2 5 C-0.31 5 -2.62 5 -5 5 C-3.35 3.35 -1.7 1.7 0 0 Z " fill="#0766D9" transform="translate(667,714)"/>
<path d="M0 0 C2.97246802 2.54782974 4.41535288 5.45340883 6 9 C6 9.66 6 10.32 6 11 C5.34 11 4.68 11 4 11 C4 10.01 4 9.02 4 8 C3.01 8 2.02 8 1 8 C0.67 5.36 0.34 2.72 0 0 Z " fill="#145FC4" transform="translate(286,689)"/>
<path d="M0 0 C0.33 0 0.66 0 1 0 C1.33 3.3 1.66 6.6 2 10 C0.68 10 -0.64 10 -2 10 C-1.34 6.7 -0.68 3.4 0 0 Z " fill="#0B59C4" transform="translate(191,599)"/>
<path d="M0 0 C2.29013653 3.4352048 2.17842973 4.985331 2 9 C1.01 9 0.02 9 -1 9 C-1.09765625 2.84765625 -1.09765625 2.84765625 -1 1 C-0.67 0.67 -0.34 0.34 0 0 Z " fill="#E9EFF3" transform="translate(561,382)"/>
<path d="M0 0 C0.625 1.8125 0.625 1.8125 1 4 C0.01 5.485 0.01 5.485 -1 7 C-1.99 7 -2.98 7 -4 7 C-3.43628586 3.73045798 -2.50037734 2.17424117 0 0 Z " fill="#0966D9" transform="translate(745,639)"/>
<path d="M0 0 C0.99 0.33 1.98 0.66 3 1 C1.60667426 4.36720387 0.0210714 5.9859524 -3 8 C-2.74438677 5.6568787 -2.40729228 3.32156597 -2 1 C-1.34 0.67 -0.68 0.34 0 0 Z " fill="#E99C1A" transform="translate(766,610)"/>
<path d="M0 0 C0.99 0 1.98 0 3 0 C3.33 0.99 3.66 1.98 4 3 C2.02 3.99 0.04 4.98 -2 6 C-1.125 1.125 -1.125 1.125 0 0 Z " fill="#E9982B" transform="translate(802,566)"/>
<path d="M0 0 C3.37462715 0.54723683 5.08235 1.0549 8 3 C4.7 3 1.4 3 -2 3 C-1.34 2.67 -0.68 2.34 0 2 C0 1.34 0 0.68 0 0 Z " fill="#E7EFF1" transform="translate(428,882)"/>
<path d="M0 0 C0.66 0.33 1.32 0.66 2 1 C0.02 3.31 -1.96 5.62 -4 8 C-5 6 -5 6 -5 2 C-2.625 0.9375 -2.625 0.9375 0 0 Z " fill="#DE8D1A" transform="translate(677,602)"/>
<path d="M0 0 C0.99 0.33 1.98 0.66 3 1 C3 1.66 3 2.32 3 3 C1 4.625 1 4.625 -1 6 C-1.66 5.34 -2.32 4.68 -3 4 C-2.01 2.68 -1.02 1.36 0 0 Z M-2 6 C-2 9 -2 9 -2 9 Z " fill="#E7EEF2" transform="translate(292,599)"/>
<path d="M0 0 C3.91211733 1.15585285 6.8745041 2.35534962 10 5 C6.28111761 4.49287967 3.26545761 3.88391785 0 2 C0 1.34 0 0.68 0 0 Z " fill="#E0EDF5" transform="translate(317,476)"/>
<path d="M0 0 C0.33 0.66 0.66 1.32 1 2 C-0.65 4.31 -2.3 6.62 -4 9 C-4.33 8.34 -4.66 7.68 -5 7 C-2.54545455 1.27272727 -2.54545455 1.27272727 0 0 Z " fill="#E98816" transform="translate(877,475)"/>
<path d="M0 0 C0.33 0.99 0.66 1.98 1 3 C1.66 3.33 2.32 3.66 3 4 C2.01 4.99 1.02 5.98 0 7 C-0.99 6.67 -1.98 6.34 -3 6 C-2.01 4.02 -1.02 2.04 0 0 Z " fill="#E38B19" transform="translate(605,684)"/>
<path d="M0 0 C0 0.99 0 1.98 0 3 C-2.5 5.1875 -2.5 5.1875 -5 7 C-5.66 5.68 -6.32 4.36 -7 3 C-6.21625 2.87625 -5.4325 2.7525 -4.625 2.625 C-1.85942178 2.20882007 -1.85942178 2.20882007 0 0 Z " fill="#F19C15" transform="translate(744,638)"/>
<path d="M0 0 C0.66 0.33 1.32 0.66 2 1 C1 5 1 5 0 9 C-0.66 9 -1.32 9 -2 9 C-2.125 5.625 -2.125 5.625 -2 2 C-1.34 1.34 -0.68 0.68 0 0 Z " fill="#E9991B" transform="translate(641,633)"/>
<path d="M0 0 C0.99 0 1.98 0 3 0 C2.60196439 2.88575819 2.20990931 3.82189513 -0.0625 5.75 C-0.701875 6.1625 -1.34125 6.575 -2 7 C-1.34 4.69 -0.68 2.38 0 0 Z " fill="#ED9918" transform="translate(758,619)"/>
<path d="M0 0 C0.66 0 1.32 0 2 0 C2.33 0.66 2.66 1.32 3 2 C5.01669827 3.13350534 5.01669827 3.13350534 7 4 C6.34 5.32 5.68 6.64 5 8 C4.16382818 6.8562364 3.33113541 5.70992861 2.5 4.5625 C2.0359375 3.92441406 1.571875 3.28632812 1.09375 2.62890625 C0 1 0 1 0 0 Z " fill="#0659C4" transform="translate(181,596)"/>
<path d="M0 0 C2.8125 -0.25 2.8125 -0.25 6 0 C7.875 2 7.875 2 9 4 C8.01 4.495 8.01 4.495 7 5 C4.5249829 3.88568235 2.32116581 2.41849022 0 1 C0 0.67 0 0.34 0 0 Z " fill="#E6EFF3" transform="translate(327,382)"/>
<path d="M0 0 C2.97 0.33 5.94 0.66 9 1 C9.33 2.32 9.66 3.64 10 5 C5.05 3.02 5.05 3.02 0 1 C0 0.67 0 0.34 0 0 Z " fill="#E6EFF5" transform="translate(316,377)"/>
<path d="M0 0 C0.66 0.33 1.32 0.66 2 1 C0.02 2.32 -1.96 3.64 -4 5 C-4.66 4.67 -5.32 4.34 -6 4 C-6 3.01 -6 2.02 -6 1 C-4.7934375 1.0309375 -4.7934375 1.0309375 -3.5625 1.0625 C-1.06645115 1.29633621 -1.06645115 1.29633621 0 0 Z " fill="#095BC6" transform="translate(759,257)"/>
<path d="M0 0 C0.66 0 1.32 0 2 0 C1.67 2.31 1.34 4.62 1 7 C0.01 7 -0.98 7 -2 7 C-1.125 1.125 -1.125 1.125 0 0 Z " fill="#E8EFF4" transform="translate(479,777)"/>
<path d="M0 0 C6.0546875 -0.1953125 6.0546875 -0.1953125 8 0 C8.66 0.66 9.32 1.32 10 2 C6.18510326 3.46726798 3.70988378 2.43336419 0 1 C0 0.67 0 0.34 0 0 Z " fill="#E5EFF3" transform="translate(363,257)"/>
</svg>
